<?xml version="1.0" encoding="UTF-8"?>
<svg width="198" height="198" version="1.1" viewBox="0 0 198 198" xmlns="http://www.w3.org/2000/svg">
 <path d="m99 0c-54.6 0-99 44.4-99 99s44.4 99 99 99 99-44.4 99-99-44.4-99-99-99zm0 180c-44.7 0-81-36.3-81-81s36.3-81 81-81 81 36.3 81 81-36.3 81-81 81z" fill="#2196f3"/>
 <path d="m99 54c-24.8 0-45 20.2-45 45s20.2 45 45 45 45-20.2 45-45-20.2-45-45-45zm0 72c-14.9 0-27-12.1-27-27s12.1-27 27-27 27 12.1 27 27-12.1 27-27 27z" fill="#2196f3"/>
 <circle cx="99" cy="99" r="18" fill="#2196f3"/>
</svg>